<?xml version="1.0" encoding="UTF-8" standalone="no"?>
<svg
   xmlns:dc="http://purl.org/dc/elements/1.1/"
   xmlns:cc="http://creativecommons.org/ns#"
   xmlns:rdf="http://www.w3.org/1999/02/22-rdf-syntax-ns#"
   xmlns:svg="http://www.w3.org/2000/svg"
   xmlns="http://www.w3.org/2000/svg"
   xmlns:sodipodi="http://sodipodi.sourceforge.net/DTD/sodipodi-0.dtd"
   xmlns:inkscape="http://www.inkscape.org/namespaces/inkscape"
   version="1.1"
   id="Layer_1"
   x="0px"
   y="0px"
   width="800px"
   height="600px"
   viewBox="0 0 800 600"
   enable-background="new 0 0 800 600"
   xml:space="preserve"
   sodipodi:docname="schedule -daily  to do list - 2.svg"
   inkscape:version="1.0.2-2 (e86c870879, 2021-01-15)"><metadata
   id="metadata118"><rdf:RDF><cc:Work
       rdf:about=""><dc:format>image/svg+xml</dc:format><dc:type
         rdf:resource="http://purl.org/dc/dcmitype/StillImage" /><dc:title></dc:title></cc:Work></rdf:RDF></metadata><defs
   id="defs116"><inkscape:perspective
     sodipodi:type="inkscape:persp3d"
     inkscape:vp_x="22.490931 : 73.639661 : 1"
     inkscape:vp_y="0 : 1000 : 0"
     inkscape:vp_z="822.49093 : 73.639661 : 1"
     inkscape:persp3d-origin="422.49093 : -26.360339 : 1"
     id="perspective120" /></defs><sodipodi:namedview
   pagecolor="#ffffff"
   bordercolor="#666666"
   borderopacity="1"
   objecttolerance="10"
   gridtolerance="10"
   guidetolerance="10"
   inkscape:pageopacity="0"
   inkscape:pageshadow="2"
   inkscape:window-width="1920"
   inkscape:window-height="1017"
   id="namedview114"
   showgrid="false"
   inkscape:zoom="0.97462885"
   inkscape:cx="345.04717"
   inkscape:cy="302.0028"
   inkscape:window-x="-8"
   inkscape:window-y="-8"
   inkscape:window-maximized="1"
   inkscape:current-layer="Layer_1" />


<rect
   style="opacity:1;fill:#008080"
   id="rect149"
   width="772.60181"
   height="74.900307"
   x="14.364429"
   y="1.0260314"
   ry="37.450153" /><rect
   style="fill:#d45500"
   id="rect149-2"
   width="772.60181"
   height="74.900307"
   x="14.364429"
   y="75.926338"
   ry="37.450153" /><rect
   style="fill:#008080"
   id="rect149-3"
   width="772.60181"
   height="74.900307"
   x="14.364429"
   y="150.82664"
   ry="37.450153" /><rect
   style="fill:#c83737"
   id="rect149-8"
   width="772.60181"
   height="74.900307"
   x="14.364429"
   y="225.72696"
   ry="37.450153" /><rect
   style="fill:#008080"
   id="rect149-0"
   width="772.60181"
   height="74.900307"
   x="14.364429"
   y="300.62726"
   ry="37.450153" /><rect
   style="fill:#ff5555"
   id="rect149-24"
   width="772.60181"
   height="74.900307"
   x="14.364429"
   y="375.52756"
   ry="37.450153" /><rect
   style="fill:#008080"
   id="rect149-5"
   width="772.60181"
   height="74.900307"
   x="14.364429"
   y="450.42786"
   ry="37.450153" /><rect
   style="fill:#ffaaaa"
   id="rect149-57"
   width="772.60181"
   height="74.900307"
   x="14.364429"
   y="525.32819"
   ry="37.450153" /><path
   sodipodi:type="spiral"
   style="fill:#000000;fill-rule:evenodd;stroke:#000000;fill-opacity:0"
   id="path229"
   sodipodi:cx="67.99469"
   sodipodi:cy="38.989201"
   sodipodi:expansion="1"
   sodipodi:revolution="3"
   sodipodi:radius="30.454306"
   sodipodi:argument="-17.848072"
   sodipodi:t0="0"
   d="m 67.99469,38.989201 c 0.823096,1.28609 -1.327537,1.744029 -2.137567,1.36804 -2.19513,-1.018906 -1.917266,-4.056084 -0.598514,-5.643174 2.358938,-2.838933 6.741464,-2.270154 9.148782,0.171012 3.532835,3.582509 2.642279,9.466446 -0.940539,12.654389 -4.775332,4.249027 -12.205901,3.023128 -16.159997,-1.710064 -4.975825,-5.95624 -3.408595,-14.952358 2.479591,-19.665605 7.131384,-5.708374 17.702776,-3.796759 23.171212,3.249117 6.444363,8.303321 4.186617,20.455668 -4.018643,26.67682 -9.473298,7.182566 -23.210211,4.577605 -30.182427,-4.78817 -7.922275,-10.641989 -4.969384,-25.965913 5.557696,-33.688034 11.809792,-8.6630539 28.722459,-5.361735 37.193642,6.327222 9.404614,12.976958 5.754514,31.479641 -7.096749,40.699249" /><path
   sodipodi:type="spiral"
   style="fill:none;fill-rule:evenodd;stroke:#000000"
   id="path229-2"
   sodipodi:cx="737.7569"
   sodipodi:cy="113.21836"
   sodipodi:expansion="1"
   sodipodi:revolution="3"
   sodipodi:radius="30.454306"
   sodipodi:argument="-17.848072"
   sodipodi:t0="0"
   d="m 737.7569,113.21836 c 0.82309,1.28609 -1.32754,1.74403 -2.13757,1.36804 -2.19513,-1.0189 -1.91727,-4.05608 -0.59851,-5.64317 2.35893,-2.83894 6.74146,-2.27016 9.14878,0.17101 3.53283,3.58251 2.64228,9.46645 -0.94054,12.65439 -4.77533,4.24903 -12.2059,3.02313 -16.16,-1.71007 -4.97582,-5.95624 -3.40859,-14.95235 2.47959,-19.6656 7.13139,-5.708374 17.70278,-3.796759 23.17122,3.24912 6.44436,8.30332 4.18661,20.45566 -4.01865,26.67682 -9.4733,7.18256 -23.21021,4.5776 -30.18243,-4.78817 -7.92227,-10.64199 -4.96938,-25.965916 5.5577,-33.688038 11.80979,-8.663054 28.72246,-5.361735 37.19364,6.327222 9.40462,12.976956 5.75452,31.479636 -7.09675,40.699246"
   inkscape:transform-center-x="63.613925"
   inkscape:transform-center-y="-11.238749" /><path
   sodipodi:type="spiral"
   style="fill:#000000;fill-rule:evenodd;stroke:#000000;fill-opacity:0"
   id="path229-8"
   sodipodi:cx="67.99469"
   sodipodi:cy="192.22279"
   sodipodi:expansion="1"
   sodipodi:revolution="3"
   sodipodi:radius="30.454306"
   sodipodi:argument="-17.848072"
   sodipodi:t0="0"
   d="m 67.99469,192.22279 c 0.823096,1.28609 -1.327537,1.74403 -2.137567,1.36804 -2.19513,-1.0189 -1.917266,-4.05608 -0.598514,-5.64317 2.358938,-2.83893 6.741464,-2.27015 9.148782,0.17101 3.532835,3.58251 2.642279,9.46645 -0.940539,12.65439 -4.775332,4.24903 -12.205901,3.02313 -16.159997,-1.71006 -4.975825,-5.95624 -3.408595,-14.95236 2.479591,-19.66561 7.131384,-5.70837 17.702776,-3.79676 23.171212,3.24912 6.444363,8.30332 4.186617,20.45567 -4.018643,26.67682 -9.473298,7.18256 -23.210211,4.5776 -30.182427,-4.78817 -7.922275,-10.64199 -4.969384,-25.96591 5.557696,-33.68804 11.809792,-8.66305 28.722459,-5.36173 37.193642,6.32723 9.404614,12.97695 5.754514,31.47964 -7.096749,40.69925" /><path
   sodipodi:type="spiral"
   style="fill:none;fill-rule:evenodd;stroke:#000000"
   id="path229-8-7"
   sodipodi:cx="737.7569"
   sodipodi:cy="266.09708"
   sodipodi:expansion="1"
   sodipodi:revolution="3"
   sodipodi:radius="30.454306"
   sodipodi:argument="-17.848072"
   sodipodi:t0="0"
   d="m 737.7569,266.09708 c 0.82309,1.28609 -1.32754,1.74403 -2.13757,1.36804 -2.19513,-1.01891 -1.91727,-4.05609 -0.59851,-5.64318 2.35893,-2.83893 6.74146,-2.27015 9.14878,0.17101 3.53283,3.58251 2.64228,9.46645 -0.94054,12.65439 -4.77533,4.24903 -12.2059,3.02313 -16.16,-1.71006 -4.97582,-5.95624 -3.40859,-14.95236 2.47959,-19.6656 7.13139,-5.70838 17.70278,-3.79676 23.17122,3.24911 6.44436,8.30332 4.18661,20.45567 -4.01865,26.67682 -9.4733,7.18257 -23.21021,4.57761 -30.18243,-4.78817 -7.92227,-10.64199 -4.96938,-25.96591 5.5577,-33.68803 11.80979,-8.66306 28.72246,-5.36174 37.19364,6.32722 9.40462,12.97696 5.75452,31.47964 -7.09675,40.69925" /><path
   sodipodi:type="spiral"
   style="fill:#000000;fill-rule:evenodd;stroke:#000000;fill-opacity:0"
   id="path229-8-5"
   sodipodi:cx="67.99469"
   sodipodi:cy="335.86722"
   sodipodi:expansion="1"
   sodipodi:revolution="3"
   sodipodi:radius="30.454306"
   sodipodi:argument="-17.848072"
   sodipodi:t0="0"
   d="m 67.99469,335.86722 c 0.823096,1.28609 -1.327537,1.74403 -2.137567,1.36804 -2.19513,-1.01891 -1.917266,-4.05609 -0.598514,-5.64318 2.358938,-2.83893 6.741464,-2.27015 9.148782,0.17102 3.532835,3.58251 2.642279,9.46644 -0.940539,12.65439 -4.775332,4.24902 -12.205901,3.02312 -16.159997,-1.71007 -4.975825,-5.95624 -3.408595,-14.95236 2.479591,-19.6656 7.131384,-5.70838 17.702776,-3.79676 23.171212,3.24911 6.444363,8.30332 4.186617,20.45567 -4.018643,26.67682 -9.473298,7.18257 -23.210211,4.57761 -30.182427,-4.78817 -7.922275,-10.64199 -4.969384,-25.96591 5.557696,-33.68803 11.809792,-8.66305 28.722459,-5.36174 37.193642,6.32722 9.404614,12.97696 5.754514,31.47964 -7.096749,40.69925" /><path
   sodipodi:type="spiral"
   style="fill:none;fill-rule:evenodd;stroke:#000000"
   id="path229-8-1"
   sodipodi:cx="737.7569"
   sodipodi:cy="413.84561"
   sodipodi:expansion="1"
   sodipodi:revolution="3"
   sodipodi:radius="30.454306"
   sodipodi:argument="-17.848072"
   sodipodi:t0="0"
   d="m 737.7569,413.84561 c 0.82309,1.28609 -1.32754,1.74403 -2.13757,1.36804 -2.19513,-1.0189 -1.91727,-4.05608 -0.59851,-5.64317 2.35893,-2.83893 6.74146,-2.27016 9.14878,0.17101 3.53283,3.58251 2.64228,9.46645 -0.94054,12.65439 -4.77533,4.24903 -12.2059,3.02313 -16.16,-1.71007 -4.97582,-5.95623 -3.40859,-14.95235 2.47959,-19.6656 7.13139,-5.70837 17.70278,-3.79676 23.17122,3.24912 6.44436,8.30332 4.18661,20.45566 -4.01865,26.67682 -9.4733,7.18256 -23.21021,4.5776 -30.18243,-4.78817 -7.92227,-10.64199 -4.96938,-25.96592 5.5577,-33.68804 11.80979,-8.66305 28.72246,-5.36173 37.19364,6.32722 9.40462,12.97696 5.75452,31.47965 -7.09675,40.69925" /><path
   sodipodi:type="spiral"
   style="fill:none;fill-rule:evenodd;stroke:#000000"
   id="path229-8-12"
   sodipodi:cx="737.7569"
   sodipodi:cy="566.72437"
   sodipodi:expansion="1"
   sodipodi:revolution="3"
   sodipodi:radius="30.454306"
   sodipodi:argument="-17.848072"
   sodipodi:t0="0"
   d="m 737.7569,566.72437 c 0.82309,1.28609 -1.32754,1.74402 -2.13757,1.36804 -2.19513,-1.01891 -1.91727,-4.05609 -0.59851,-5.64318 2.35893,-2.83893 6.74146,-2.27015 9.14878,0.17101 3.53283,3.58251 2.64228,9.46645 -0.94054,12.65439 -4.77533,4.24903 -12.2059,3.02313 -16.16,-1.71006 -4.97582,-5.95624 -3.40859,-14.95236 2.47959,-19.66561 7.13139,-5.70837 17.70278,-3.79675 23.17122,3.24912 6.44436,8.30332 4.18661,20.45567 -4.01865,26.67682 -9.4733,7.18257 -23.21021,4.57761 -30.18243,-4.78817 -7.92227,-10.64199 -4.96938,-25.96591 5.5577,-33.68803 11.80979,-8.66306 28.72246,-5.36174 37.19364,6.32722 9.40462,12.97696 5.75452,31.47964 -7.09675,40.69925" /><path
   sodipodi:type="spiral"
   style="fill:#000000;fill-rule:evenodd;stroke:#000000;fill-opacity:0"
   id="path229-8-8"
   sodipodi:cx="67.99469"
   sodipodi:cy="488.74594"
   sodipodi:expansion="1"
   sodipodi:revolution="3"
   sodipodi:radius="30.454306"
   sodipodi:argument="-17.848072"
   sodipodi:t0="0"
   d="m 67.99469,488.74594 c 0.823096,1.28609 -1.327537,1.74403 -2.137567,1.36804 -2.19513,-1.0189 -1.917266,-4.05608 -0.598514,-5.64317 2.358938,-2.83894 6.741464,-2.27016 9.148782,0.17101 3.532835,3.58251 2.642279,9.46645 -0.940539,12.65439 -4.775332,4.24903 -12.205901,3.02313 -16.159997,-1.71007 -4.975825,-5.95624 -3.408595,-14.95235 2.479591,-19.6656 7.131384,-5.70837 17.702776,-3.79676 23.171212,3.24912 6.444363,8.30332 4.186617,20.45566 -4.018643,26.67682 -9.473298,7.18256 -23.210211,4.5776 -30.182427,-4.78817 -7.922275,-10.64199 -4.969384,-25.96592 5.557696,-33.68804 11.809792,-8.66305 28.722459,-5.36173 37.193642,6.32722 9.404614,12.97696 5.754514,31.47965 -7.096749,40.69925" /></svg>
